HIERARCHY
ROOT Hips
{
	OFFSET 0.559510 88.370186 5.270278
	CHANNELS 6 Xposition Yposition Zposition Zrotation Yrotation Xrotation 
	JOINT Spine
	{
		OFFSET 0.000000 8.814246 -2.080107
		CHANNELS 3 Zrotation Yrotation Xrotation
		JOINT Spine1
		{
			OFFSET 0.000000 8.844141 0.000000
			CHANNELS 3 Zrotation Yrotation Xrotation
			JOINT Spine2
			{
				OFFSET -0.000000 11.682268 -0.000000
				CHANNELS 3 Zrotation Yrotation Xrotation
				JOINT Spine3
				{
					OFFSET 0.000000 11.746700 0.000000
					CHANNELS 3 Zrotation Yrotation Xrotation
					JOINT Neck
					{
						OFFSET 0.000000 17.658264 0.000000
						CHANNELS 3 Zrotation Yrotation Xrotation
						JOINT Neck1
						{
							OFFSET 0.000000 5.101515 0.000000
							CHANNELS 3 Zrotation Yrotation Xrotation
							JOINT Head
							{
								OFFSET -0.000000 5.101515 -0.000000
								CHANNELS 3 Zrotation Yrotation Xrotation
								JOINT HeadEnd
								{
									OFFSET 0.000000 11.655085 0.000000
									CHANNELS 3 Zrotation Yrotation Xrotation
									End Site
									{
										OFFSET 0.000000 0.000000 0.000000
									}
								}
							}
						}
					}
					JOINT RightShoulder
					{
						OFFSET -2.625389 11.175210 0.000000
						CHANNELS 3 Zrotation Yrotation Xrotation
						JOINT RightArm
						{
							OFFSET 0.000000 10.434715 -0.000000
							CHANNELS 3 Zrotation Yrotation Xrotation
							JOINT RightForeArm
							{
								OFFSET -0.000000 29.628420 0.000000
								CHANNELS 3 Zrotation Yrotation Xrotation
								JOINT RightHand
								{
									OFFSET -0.000000 22.857611 0.000000
									CHANNELS 3 Zrotation Yrotation Xrotation
									JOINT RightHandThumb1
									{
										OFFSET -2.867323 3.959563 2.944291
										CHANNELS 3 Zrotation Yrotation Xrotation
										JOINT RightHandThumb2
										{
											OFFSET -0.000000 3.350399 0.000000
											CHANNELS 3 Zrotation Yrotation Xrotation
											JOINT RightHandThumb3
											{
												OFFSET 0.000000 3.756509 -0.000000
												CHANNELS 3 Zrotation Yrotation Xrotation
												JOINT RightHandThumb4
												{
													OFFSET 0.000000 3.147345 -0.000000
													CHANNELS 3 Zrotation Yrotation Xrotation
													End Site
													{
														OFFSET 0.000000 0.000000 0.000000
													}
												}
											}
										}
									}
									JOINT RightHandIndex1
									{
										OFFSET -0.086752 10.030893 2.345280
										CHANNELS 3 Zrotation Yrotation Xrotation
										JOINT RightHandIndex2
										{
											OFFSET 0.000000 4.061090 -0.000000
											CHANNELS 3 Zrotation Yrotation Xrotation
											JOINT RightHandIndex3
											{
												OFFSET -0.000000 3.248873 0.000000
												CHANNELS 3 Zrotation Yrotation Xrotation
												JOINT RightHandIndex4
												{
													OFFSET 0.000000 2.639709 -0.000000
													CHANNELS 3 Zrotation Yrotation Xrotation
													End Site
													{
														OFFSET 0.000000 0.000000 0.000000
													}
												}
											}
										}
									}
									JOINT RightHandMiddle1
									{
										OFFSET 0.104102 9.502952 0.006768
										CHANNELS 3 Zrotation Yrotation Xrotation
										JOINT RightHandMiddle2
										{
											OFFSET -0.000000 4.568727 0.000000
											CHANNELS 3 Zrotation Yrotation Xrotation
											JOINT RightHandMiddle3
											{
												OFFSET -0.000000 3.654981 0.000000
												CHANNELS 3 Zrotation Yrotation Xrotation
												JOINT RightHandMiddle4
												{
													OFFSET -0.000000 2.741236 0.000000
													CHANNELS 3 Zrotation Yrotation Xrotation
													End Site
													{
														OFFSET 0.000000 0.000000 0.000000
													}
												}
											}
										}
									}
									JOINT RightHandRing1
									{
										OFFSET 0.086752 8.921708 -2.267442
										CHANNELS 3 Zrotation Yrotation Xrotation
										JOINT RightHandRing2
										{
											OFFSET 0.000000 4.061090 -0.000000
											CHANNELS 3 Zrotation Yrotation Xrotation
											JOINT RightHandRing3
											{
												OFFSET 0.000000 3.654981 -0.000000
												CHANNELS 3 Zrotation Yrotation Xrotation
												JOINT RightHandRing4
												{
													OFFSET -0.000000 2.741236 0.000000
													CHANNELS 3 Zrotation Yrotation Xrotation
													End Site
													{
														OFFSET 0.000000 0.000000 0.000000
													}
												}
											}
										}
									}
									JOINT RightHandPinky1
									{
										OFFSET -0.173504 7.976997 -4.467199
										CHANNELS 3 Zrotation Yrotation Xrotation
										JOINT RightHandPinky2
										{
											OFFSET -0.000000 3.350399 -0.000000
											CHANNELS 3 Zrotation Yrotation Xrotation
											JOINT RightHandPinky3
											{
												OFFSET -0.000000 2.842763 0.000000
												CHANNELS 3 Zrotation Yrotation Xrotation
												JOINT RightHandPinky4
												{
													OFFSET -0.000000 2.639709 0.000000
													CHANNELS 3 Zrotation Yrotation Xrotation
													End Site
													{
														OFFSET 0.000000 0.000000 0.000000
													}
												}
											}
										}
									}
									JOINT RightForeArmEnd
									{
										OFFSET 0.000000 0.000000 0.000000
										CHANNELS 3 Zrotation Yrotation Xrotation
										End Site
										{
											OFFSET 0.000000 0.000000 0.000000
										}
									}
								}
								JOINT RightArmEnd
								{
									OFFSET 0.000000 0.000000 0.000000
									CHANNELS 3 Zrotation Yrotation Xrotation
									End Site
									{
										OFFSET 0.000000 0.000000 0.000000
									}
								}
							}
						}
					}
					JOINT LeftShoulder
					{
						OFFSET 2.625389 11.175210 -0.000000
						CHANNELS 3 Zrotation Yrotation Xrotation
						JOINT LeftArm
						{
							OFFSET 0.000000 10.813635 0.000000
							CHANNELS 3 Zrotation Yrotation Xrotation
							JOINT LeftForeArm
							{
								OFFSET 0.000000 28.724781 0.000000
								CHANNELS 3 Zrotation Yrotation Xrotation
								JOINT LeftHand
								{
									OFFSET 0.644384 25.716167 -0.328871
									CHANNELS 3 Zrotation Yrotation Xrotation
									JOINT LeftHandThumb1
									{
										OFFSET 2.867323 3.959563 2.944291
										CHANNELS 3 Zrotation Yrotation Xrotation
										JOINT LeftHandThumb2
										{
											OFFSET 0.000000 3.350399 -0.000000
											CHANNELS 3 Zrotation Yrotation Xrotation
											JOINT LeftHandThumb3
											{
												OFFSET 0.000000 3.756509 0.000000
												CHANNELS 3 Zrotation Yrotation Xrotation
												JOINT LeftHandThumb4
												{
													OFFSET 0.000000 3.100000 0.000000
													CHANNELS 3 Zrotation Yrotation Xrotation
													End Site
													{
														OFFSET 0.000000 0.000000 0.000000
													}
												}
											}
										}
									}
									JOINT LeftHandIndex1
									{
										OFFSET 0.086752 10.030893 2.345280
										CHANNELS 3 Zrotation Yrotation Xrotation
										JOINT LeftHandIndex2
										{
											OFFSET -0.000000 4.061090 -0.000000
											CHANNELS 3 Zrotation Yrotation Xrotation
											JOINT LeftHandIndex3
											{
												OFFSET -0.000000 3.248873 -0.000000
												CHANNELS 3 Zrotation Yrotation Xrotation
												JOINT LeftHandIndex4
												{
													OFFSET -0.000000 2.639709 -0.000000
													CHANNELS 3 Zrotation Yrotation Xrotation
													End Site
													{
														OFFSET 0.000000 0.000000 0.000000
													}
												}
											}
										}
									}
									JOINT LeftHandMiddle1
									{
										OFFSET -0.104102 9.502952 0.006768
										CHANNELS 3 Zrotation Yrotation Xrotation
										JOINT LeftHandMiddle2
										{
											OFFSET 0.000000 4.568727 0.000000
											CHANNELS 3 Zrotation Yrotation Xrotation
											JOINT LeftHandMiddle3
											{
												OFFSET 0.000000 3.654981 0.000000
												CHANNELS 3 Zrotation Yrotation Xrotation
												JOINT LeftHandMiddle4
												{
													OFFSET 0.000000 2.741236 0.000000
													CHANNELS 3 Zrotation Yrotation Xrotation
													End Site
													{
														OFFSET 0.000000 0.000000 0.000000
													}
												}
											}
										}
									}
									JOINT LeftHandRing1
									{
										OFFSET -0.086752 8.921708 -2.267442
										CHANNELS 3 Zrotation Yrotation Xrotation
										JOINT LeftHandRing2
										{
											OFFSET -0.000000 4.061090 -0.000000
											CHANNELS 3 Zrotation Yrotation Xrotation
											JOINT LeftHandRing3
											{
												OFFSET 0.000000 3.654981 -0.000000
												CHANNELS 3 Zrotation Yrotation Xrotation
												JOINT LeftHandRing4
												{
													OFFSET 0.000000 2.741236 0.000000
													CHANNELS 3 Zrotation Yrotation Xrotation
													End Site
													{
														OFFSET 0.000000 0.000000 0.000000
													}
												}
											}
										}
									}
									JOINT LeftHandPinky1
									{
										OFFSET 0.173504 7.976997 -4.467199
										CHANNELS 3 Zrotation Yrotation Xrotation
										JOINT LeftHandPinky2
										{
											OFFSET 0.000000 3.350399 0.000000
											CHANNELS 3 Zrotation Yrotation Xrotation
											JOINT LeftHandPinky3
											{
												OFFSET 0.000000 2.842763 -0.000000
												CHANNELS 3 Zrotation Yrotation Xrotation
												JOINT LeftHandPinky4
												{
													OFFSET -0.000000 2.639709 -0.000000
													CHANNELS 3 Zrotation Yrotation Xrotation
													End Site
													{
														OFFSET 0.000000 0.000000 0.000000
													}
												}
											}
										}
									}
									JOINT LeftForeArmEnd
									{
										OFFSET 0.000000 0.000000 0.000000
										CHANNELS 3 Zrotation Yrotation Xrotation
										End Site
										{
											OFFSET 0.000000 0.000000 0.000000
										}
									}
								}
								JOINT LeftArmEnd
								{
									OFFSET 0.000000 0.000000 0.000000
									CHANNELS 3 Zrotation Yrotation Xrotation
									End Site
									{
										OFFSET 0.000000 0.000000 0.000000
									}
								}
							}
						}
					}
				}
			}
		}
	}
	JOINT RightUpLeg
	{
		OFFSET -11.289943 -0.000000 0.000000
		CHANNELS 3 Zrotation Yrotation Xrotation
		JOINT RightLeg
		{
			OFFSET 0.000000 -38.200325 0.000000
			CHANNELS 3 Zrotation Yrotation Xrotation
			JOINT RightFoot
			{
				OFFSET 0.000000 -39.900856 0.000000
				CHANNELS 3 Zrotation Yrotation Xrotation
				JOINT RightToeBase
				{
					OFFSET 0.000000 0.000000 15.261641
					CHANNELS 3 Zrotation Yrotation Xrotation
					JOINT RightToeBaseEnd
					{
						OFFSET -0.000000 0.000000 7.370709
						CHANNELS 3 Zrotation Yrotation Xrotation
						End Site
						{
							OFFSET 0.000000 0.000000 0.000000
						}
					}
				}
				JOINT RightLegEnd
				{
					OFFSET 0.000000 0.000000 0.000000
					CHANNELS 3 Zrotation Yrotation Xrotation
					End Site
					{
						OFFSET 0.000000 0.000000 0.000000
					}
				}
			}
			JOINT RightUpLegEnd
			{
				OFFSET 0.000000 0.000000 0.000000
				CHANNELS 3 Zrotation Yrotation Xrotation
				End Site
				{
					OFFSET 0.000000 0.000000 0.000000
				}
			}
		}
	}
	JOINT LeftUpLeg
	{
		OFFSET 11.315661 -0.000000 -0.000000
		CHANNELS 3 Zrotation Yrotation Xrotation
		JOINT LeftLeg
		{
			OFFSET 0.000000 -38.200325 0.000000
			CHANNELS 3 Zrotation Yrotation Xrotation
			JOINT LeftFoot
			{
				OFFSET -0.000000 -39.900856 -0.000000
				CHANNELS 3 Zrotation Yrotation Xrotation
				JOINT LeftToeBase
				{
					OFFSET 0.000000 0.000000 15.261641
					CHANNELS 3 Zrotation Yrotation Xrotation
					JOINT LeftToeBaseEnd
					{
						OFFSET -0.000000 0.000000 7.539996
						CHANNELS 3 Zrotation Yrotation Xrotation
						End Site
						{
							OFFSET 0.000000 0.000000 0.000000
						}
					}
				}
				JOINT LeftLegEnd
				{
					OFFSET 0.000000 0.000000 0.000000
					CHANNELS 3 Zrotation Yrotation Xrotation
					End Site
					{
						OFFSET 0.000000 0.000000 0.000000
					}
				}
			}
			JOINT LeftUpLegEnd
			{
				OFFSET 0.000000 0.000000 0.000000
				CHANNELS 3 Zrotation Yrotation Xrotation
				End Site
				{
					OFFSET 0.000000 0.000000 0.000000
				}
			}
		}
	}
}
MOTION
Frames: 4
Frame Time: 0.016667
0.559510 88.370186 5.270278 0.377463 0.095152 -14.148361 1.354555 -0.260608 9.504204 -0.635657 0.174382 2.757480 -2.516418 0.516558 5.117703 -2.019222 -0.047013 1.542074 3.781396 -2.040888 6.121133 -0.172407 -0.920409 -2.867322 -0.148527 -0.833305 -17.534327 0.000000 0.000000 0.000000 94.433563 -0.859878 11.251544 61.796795 -39.742241 10.913876 -0.196673 12.894624 21.939508 6.807906 13.835530 -5.194727 12.135554 -1.950835 39.216904 0.000000 0.000000 -29.519997 0.000000 0.000000 -20.499998 0.000000 0.000000 0.000000 20.586378 0.000000 -10.328639 14.410469 0.000000 0.000000 14.410469 0.000000 0.000000 0.000000 0.000000 0.000000 19.330765 0.000000 -10.569376 13.531536 0.000000 0.000000 13.531536 0.000000 0.000000 0.000000 0.000000 0.000000 20.759140 0.000000 -8.681380 14.531396 0.000000 0.000000 14.531396 0.000000 0.000000 0.000000 0.000000 0.000000 21.112377 0.000000 -8.227983 14.778659 0.000000 0.000000 14.778659 0.000000 0.000000 0.000000 0.000000 0.000000 0.000000 0.000000 0.000000 0.000000 0.000000 0.000000 -91.963669 0.209357 5.943383 -68.176491 25.709898 -6.873686 -0.511503 -8.921147 39.239540 12.691621 -9.193921 -16.898151 -21.432499 1.926430 35.620716 0.000000 0.000000 -51.839996 0.000000 0.000000 -36.000004 0.000000 0.000000 0.000000 -64.504875 0.000000 -12.927964 -45.153412 0.000000 0.000000 -45.153412 0.000000 0.000000 0.000000 0.000000 0.000000 -59.159660 0.000000 -9.267982 -41.411766 0.000000 0.000000 -41.411766 0.000000 0.000000 0.000000 0.000000 0.000000 -54.098694 0.000000 -5.071388 -37.869087 0.000000 0.000000 -37.869087 0.000000 0.000000 0.000000 0.000000 0.000000 -46.683052 0.000000 -1.979767 -32.678135 0.000000 0.000000 -32.678135 0.000000 0.000000 0.000000 0.000000 0.000000 0.000000 0.000000 0.000000 0.000000 0.000000 0.000000 -10.570939 -17.134075 21.132973 -0.117816 -1.452236 4.594962 5.109068 -14.331980 17.897655 -1.670291 1.849355 -17.537710 0.000000 0.000000 0.000000 0.000000 0.000000 0.000000 0.000000 0.000000 0.000000 1.978691 -4.377448 13.689282 0.184808 1.000992 9.760185 -1.978993 7.901402 16.287004 1.052980 -1.148455 -19.334991 0.000000 0.000000 0.000000 0.000000 0.000000 0.000000 0.000000 0.000000 0.000000 
0.647874 88.135170 5.252003 0.323719 -0.074047 -12.926129 1.168384 -0.159154 7.820511 0.105570 0.088281 2.022899 -2.804941 1.268449 5.137103 -1.923820 0.299043 3.106337 3.684467 -2.561949 3.565197 0.434269 -1.341879 -3.885572 0.378496 -1.028792 -17.713451 0.000000 0.000000 0.000000 93.749580 -0.431967 11.444621 63.508808 -36.878075 8.785486 0.224287 14.807940 23.071865 6.689649 11.181954 -5.492891 12.014071 -1.936336 39.343884 -0.000000 0.000047 -29.107000 0.000012 0.000041 -20.101137 0.000011 -0.000001 -0.000037 20.390467 -0.042726 -9.940763 13.998208 -0.298608 0.613223 14.129413 -0.270384 0.469331 -0.000017 0.000038 -0.000032 19.340748 -0.025464 -10.222620 13.079404 -0.114487 0.209703 13.284035 -0.083831 0.159741 0.000022 0.000035 0.000005 20.798485 0.017312 -9.073651 13.885012 0.228341 -0.288221 13.876944 0.138065 -0.209033 -0.000029 -0.000807 0.000002 21.172987 0.134308 -9.556416 13.956114 0.606112 -0.767928 13.844289 0.464232 -0.637286 -0.000094 0.000001 0.000025 0.000000 0.000000 0.000000 0.000000 0.000000 0.000000 -90.037163 0.154498 5.600857 -68.021034 24.756205 -4.067692 -0.983277 -7.469046 37.841343 14.118967 -7.495955 -13.619006 -20.663952 2.182086 35.428478 0.000005 0.000029 -50.167957 0.000078 -0.000013 -35.085087 -0.000663 -0.000003 -0.000015 -60.413723 -0.030297 -11.760044 -42.080956 0.135940 1.033434 -42.181377 0.146967 0.867213 0.000016 0.000196 0.000012 -56.857601 0.003379 -9.262369 -40.354137 0.041984 0.369568 -40.211784 0.041939 0.301969 0.000589 -0.000059 0.000007 -53.264202 0.056927 -5.536221 -38.283661 -0.037671 -0.517342 -38.384495 -0.041807 -0.360400 -0.000452 0.000007 0.000011 -46.166542 0.153222 -0.881299 -33.538219 -0.062790 -1.133078 -33.659229 -0.100904 -0.893707 -0.000133 -0.000016 -0.000048 0.000000 0.000000 0.000000 0.000000 0.000000 0.000000 -10.544272 -16.243437 19.857616 -0.208650 -1.175628 4.314863 5.330465 -14.108705 17.067860 -1.614205 1.463266 -16.311266 0.000000 0.000000 0.000000 0.000000 0.000000 0.000000 0.000000 0.000000 0.000000 3.997735 -2.151098 12.883631 0.156162 0.758926 10.626253 -1.796251 5.719161 16.197292 0.758605 -0.797019 -19.184212 0.000000 0.000000 0.000000 0.000000 0.000000 0.000000 0.000000 0.000000 0.000000 
0.679401 88.136780 5.194529 0.437473 -0.014360 -12.829226 1.069346 -0.149279 7.870893 0.029049 0.090788 1.885300 -2.724253 1.131912 5.287525 -1.841985 0.257540 3.119986 3.709566 -2.339543 3.395357 0.519442 -1.097520 -3.884228 0.350501 -1.009678 -17.643974 0.000000 0.000000 0.000000 93.691772 -0.392156 11.491357 63.641247 -36.978062 8.444167 0.183014 14.670593 23.202740 6.243904 10.814595 -5.570490 12.102364 -1.943237 39.306282 -0.000009 0.000056 -29.323858 0.000017 0.000037 -20.251009 0.000018 0.000003 -0.000042 21.062943 -0.040700 -9.751218 14.284833 -0.279229 0.558088 14.399608 -0.250198 0.423710 -0.000011 0.000043 -0.000024 19.908167 -0.024750 -10.004725 13.354557 -0.106909 0.187558 13.557538 -0.076743 0.144218 0.000023 0.000039 -0.000001 21.187599 0.013590 -8.896770 14.096120 0.215011 -0.265616 14.106744 0.127922 -0.189945 -0.000032 -0.000896 -0.000005 21.411634 0.123113 -9.422579 14.136320 0.570822 -0.695857 14.016901 0.430563 -0.576650 -0.000046 0.000005 0.000032 0.000000 0.000000 0.000000 0.000000 0.000000 0.000000 -89.841362 0.175093 5.594390 -68.170853 24.505413 -3.918306 -0.947300 -7.420664 37.739128 14.242826 -7.723893 -13.626059 -20.690844 2.182461 35.405476 0.000010 0.000032 -50.259174 0.000052 -0.000009 -35.158287 -0.000585 0.000000 -0.000082 -60.585331 -0.025465 -11.611595 -42.155285 0.139227 1.008416 -42.270210 0.150030 0.846931 0.000023 0.000126 0.000017 -57.106358 0.004833 -9.145896 -40.477699 0.042546 0.361545 -40.323570 0.042664 0.295407 0.000741 -0.000057 0.000001 -53.681324 0.057424 -5.462395 -38.511059 -0.040371 -0.511234 -38.627766 -0.044798 -0.355974 -0.000453 0.000011 0.000011 -46.739613 0.148104 -0.844285 -33.856514 -0.077921 -1.126219 -33.986671 -0.113916 -0.882224 -0.000227 -0.000008 -0.000057 0.000000 0.000000 0.000000 0.000000 0.000000 0.000000 -10.715362 -16.337711 19.642244 -0.206400 -1.176019 4.486557 5.422344 -14.072145 16.931328 -1.631898 1.462008 -16.317272 0.000000 0.000000 0.000000 0.000000 0.000000 0.000000 0.000000 0.000000 0.000000 3.920782 -1.889128 12.938227 0.155731 0.753690 10.377442 -1.835622 5.717257 16.154627 0.776378 -0.820092 -19.127659 0.000000 0.000000 0.000000 0.000000 0.000000 0.000000 0.000000 0.000000 0.000000 
0.699898 88.125778 5.135738 0.603536 0.037125 -12.746028 0.921992 -0.114904 7.918208 -0.066013 0.108039 1.806970 -2.659548 1.041271 5.412195 -1.770910 0.213299 3.146282 3.620663 -2.110975 3.269532 0.599130 -0.903985 -3.908963 0.325212 -1.005459 -17.640129 0.000000 0.000000 0.000000 93.595879 -0.361456 11.548421 63.823967 -36.838760 8.235920 0.149313 14.551727 23.373400 5.894444 10.604153 -5.404513 12.173285 -1.950267 39.278160 -0.000010 0.000055 -29.500223 0.000016 0.000039 -20.360680 0.000018 0.000003 -0.000042 21.526892 -0.040331 -9.583277 14.514201 -0.260016 0.491125 14.614620 -0.230336 0.365613 -0.000013 0.000042 -0.000023 20.285654 -0.025027 -9.813249 13.581921 -0.098889 0.161767 13.781380 -0.069994 0.124021 0.000022 0.000048 0.000001 21.445768 0.011504 -8.716454 14.268764 0.203442 -0.238445 14.291714 0.119281 -0.166438 -0.000031 -0.000990 -0.000005 21.503490 0.114336 -9.260296 14.287627 0.539934 -0.616258 14.159538 0.401263 -0.509114 0.000025 0.000004 0.000031 0.000000 0.000000 0.000000 0.000000 0.000000 0.000000 -89.551552 0.160883 5.647935 -68.254349 24.275602 -3.739119 -0.922531 -7.380599 37.790131 14.252199 -7.933584 -13.482039 -20.741531 2.183964 35.371792 0.000010 0.000031 -50.402836 0.000037 -0.000010 -35.263985 -0.000488 -0.000000 -0.000048 -60.785751 -0.024532 -11.481728 -42.251072 0.143149 0.998673 -42.378643 0.153588 0.840039 0.000022 0.000069 0.000018 -57.375935 0.004770 -9.044849 -40.626911 0.043897 0.357825 -40.468224 0.043984 0.293533 0.000913 -0.000058 0.000001 -54.128105 0.058866 -5.382986 -38.798138 -0.043919 -0.513255 -38.920757 -0.048089 -0.356557 -0.000331 0.000011 0.000011 -47.372463 0.143999 -0.815637 -34.252640 -0.092158 -1.137386 -34.396595 -0.125958 -0.884931 -0.000280 -0.000009 -0.000057 0.000000 0.000000 0.000000 0.000000 0.000000 0.000000 -10.935171 -16.343470 19.394886 -0.206629 -1.176613 4.703209 5.518965 -14.005194 16.819918 -1.644691 1.451747 -16.366249 0.000000 0.000000 0.000000 0.000000 0.000000 0.000000 0.000000 0.000000 0.000000 3.786357 -1.612605 12.990236 0.154696 0.751821 10.200350 -1.833819 5.750404 16.077044 0.791753 -0.832297 -19.097721 0.000000 0.000000 0.000000 0.000000 0.000000 0.000000 0.000000 0.000000 0.000000 
